<svg xmlns="http://www.w3.org/2000/svg" width="225" height="225" viewBox="0 0 225 225" fill="none"><rect width="225" height="225" fill="#A100FF"></rect><path d="M127.973 93.4982L138.547 89.5612L127.973 85.5118V80L146.083 87.3115V91.8109L127.973 99.1224V93.4982Z" fill="white"></path><path d="M27.9741 128.368C24.1496 128.368 21 126.456 21 122.182V121.957C21 116.783 25.4994 114.983 31.0111 114.983H33.5983V113.97C33.5983 111.833 32.6984 110.596 30.4487 110.596C28.424 110.596 27.4116 111.721 27.2991 113.295H21.6749C22.1248 108.571 25.8368 106.321 30.7862 106.321C35.848 106.321 39.56 108.459 39.56 113.745V127.918H33.8233V125.444C32.6984 127.019 30.7862 128.368 27.9741 128.368ZM33.5983 120.944V118.92H31.2361C28.3115 118.92 26.8492 119.707 26.8492 121.619V121.844C26.8492 123.307 27.7491 124.319 29.7738 124.319C31.7985 124.206 33.5983 123.082 33.5983 120.944ZM52.9457 128.368C47.0964 128.368 42.822 124.769 42.822 117.57V117.232C42.822 110.033 47.3214 106.209 52.9457 106.209C57.7825 106.209 61.7195 108.684 62.1694 114.195H56.5452C56.2077 112.171 55.0829 110.821 53.0581 110.821C50.5835 110.821 48.7837 112.846 48.7837 117.007V117.682C48.7837 121.957 50.3585 123.869 53.0581 123.869C55.0829 123.869 56.5452 122.407 56.8826 120.045H62.2819C61.9444 124.994 58.6824 128.368 52.9457 128.368ZM74.9927 128.368C69.1434 128.368 64.869 124.769 64.869 117.57V117.232C64.869 110.033 69.3684 106.209 74.9927 106.209C79.8295 106.209 83.7665 108.684 84.2164 114.195H78.5922C78.2547 112.171 77.1299 110.821 75.1051 110.821C72.6305 110.821 70.8307 112.846 70.8307 117.007V117.682C70.8307 121.957 72.4055 123.869 75.1051 123.869C77.1299 123.869 78.5922 122.407 78.9296 120.045H84.3289C83.9914 124.994 80.7294 128.368 74.9927 128.368ZM97.1521 128.368C91.078 128.368 86.916 124.769 86.916 117.682V117.232C86.916 110.146 91.3029 106.209 97.0397 106.209C102.326 106.209 106.713 109.134 106.713 116.22V118.807H92.8777C93.1027 122.632 94.79 124.094 97.2646 124.094C99.5143 124.094 100.752 122.857 101.202 121.394H106.713C106.038 125.331 102.664 128.368 97.1521 128.368ZM92.9902 114.87H100.864C100.752 111.721 99.2893 110.371 96.9272 110.371C95.1274 110.483 93.4401 111.496 92.9902 114.87ZM110.313 106.771H116.275V109.921C117.287 107.896 119.424 106.321 122.686 106.321C126.511 106.321 129.098 108.684 129.098 113.745V127.918H123.136V114.645C123.136 112.171 122.124 111.046 119.987 111.046C117.962 111.046 116.275 112.283 116.275 114.983V127.918H110.313V106.771V106.771ZM140.009 100.36V106.771H144.058V111.158H140.009V121.169C140.009 122.744 140.684 123.532 142.146 123.532C143.046 123.532 143.608 123.419 144.171 123.194V127.806C143.496 128.031 142.258 128.256 140.796 128.256C136.184 128.256 134.047 126.119 134.047 121.844V111.158H131.572V106.771H134.047V102.834L140.009 100.36ZM166.33 127.918H160.481V124.769C159.469 126.794 157.444 128.368 154.294 128.368C150.47 128.368 147.658 126.006 147.658 121.057V106.771H153.619V120.27C153.619 122.744 154.632 123.869 156.657 123.869C158.681 123.869 160.369 122.519 160.369 119.932V106.771H166.33V127.918ZM170.717 106.771H176.679V110.708C177.916 107.896 179.941 106.546 183.09 106.546V112.396C179.041 112.396 176.679 113.633 176.679 117.12V128.031H170.717V106.771ZM195.126 128.368C189.052 128.368 184.89 124.769 184.89 117.682V117.232C184.89 110.146 189.277 106.209 195.014 106.209C200.301 106.209 204.688 109.134 204.688 116.22V118.807H190.964C191.189 122.632 192.877 124.094 195.351 124.094C197.601 124.094 198.838 122.857 199.288 121.394H204.8C203.9 125.331 200.638 128.368 195.126 128.368ZM190.852 114.87H198.838C198.726 111.721 197.264 110.371 194.901 110.371C193.102 110.483 191.414 111.496 190.852 114.87Z" fill="white"></path></svg>